<svg width="121" height="121" viewBox="0 0 121 121" fill="none" xmlns="http://www.w3.org/2000/svg">
<g filter="url(#filter0_d_507_2045)">
<circle cx="60.5" cy="56.5" r="40.5" transform="rotate(-180 60.5 56.5)" fill="#FFFEF2"/>
</g>
<path d="M78.9325 59.4991C80.3127 59.5364 81.4618 58.4478 81.4991 57.0675C81.5364 55.6873 80.4478 54.5382 79.0675 54.5009L79 57L78.9325 59.4991ZM40.2806 54.1851C39.2783 55.1347 39.2355 56.717 40.1851 57.7194L55.6594 74.0533C56.6089 75.0556 58.1913 75.0984 59.1936 74.1488C60.1959 73.1992 60.2387 71.6169 59.2891 70.6146L45.5342 56.0955L60.0533 42.3406C61.0556 41.3911 61.0984 39.8087 60.1488 38.8064C59.1992 37.8041 57.6169 37.7613 56.6146 38.7109L40.2806 54.1851ZM79 57L79.0675 54.5009L42.0675 53.5009L42 56L41.9325 58.4991L78.9325 59.4991L79 57Z" fill="#256D45"/>
<defs>
<filter id="filter0_d_507_2045" x="0" y="0" width="121" height="121" filterUnits="userSpaceOnUse" color-interpolation-filters="sRGB">
<feFlood flood-opacity="0" result="BackgroundImageFix"/>
<feColorMatrix in="SourceAlpha" type="matrix" values="0 0 0 0 0 0 0 0 0 0 0 0 0 0 0 0 0 0 127 0" result="hardAlpha"/>
<feOffset dy="4"/>
<feGaussianBlur stdDeviation="10"/>
<feComposite in2="hardAlpha" operator="out"/>
<feColorMatrix type="matrix" values="0 0 0 0 0 0 0 0 0 0 0 0 0 0 0 0 0 0 0.25 0"/>
<feBlend mode="normal" in2="BackgroundImageFix" result="effect1_dropShadow_507_2045"/>
<feBlend mode="normal" in="SourceGraphic" in2="effect1_dropShadow_507_2045" result="shape"/>
</filter>
</defs>
</svg>
