<svg width="25" height="26" viewBox="0 0 25 26" fill="none" xmlns="http://www.w3.org/2000/svg">
<g clip-path="url(#clip0_629_923)">
<path d="M21.4308 4.95228C20.9056 4.40334 20.2819 3.96789 19.5956 3.67079C18.9092 3.3737 18.1735 3.22078 17.4305 3.22078C16.6875 3.22078 15.9518 3.3737 15.2655 3.67079C14.5791 3.96789 13.9554 4.40334 13.4302 4.95228L12.3402 6.09098L11.2501 4.95228C10.1892 3.84399 8.7502 3.22135 7.2498 3.22135C5.7494 3.22135 4.31045 3.84399 3.24951 4.95228C2.18856 6.06057 1.59253 7.56374 1.59253 9.1311C1.59253 10.6985 2.18856 12.2016 3.24951 13.3099L12.3402 22.8063L21.4308 13.3099C21.9563 12.7612 22.3731 12.1098 22.6575 11.3928C22.9419 10.6758 23.0883 9.90723 23.0883 9.1311C23.0883 8.35497 22.9419 7.58645 22.6575 6.86943C22.3731 6.15241 21.9563 5.50096 21.4308 4.95228Z" stroke="#256D45" stroke-width="3.75353" stroke-linecap="round" stroke-linejoin="round"/>
</g>
<defs>
<clipPath id="clip0_629_923">
<rect width="24.6805" height="25.7819" fill="white"/>
</clipPath>
</defs>
</svg>
