<svg width="70" height="70" viewBox="0 0 70 70" fill="none" xmlns="http://www.w3.org/2000/svg">
<path d="M55.4105 59.2404C47.3805 64.3504 38.1764 42.0062 38.1764 42.0062C36.8086 43.1005 35.2357 43.9667 33.4576 44.605C31.6794 45.2433 29.7873 45.5625 27.7812 45.5625C22.8116 45.5625 18.6057 43.8413 15.1634 40.3991C11.7211 36.9568 10 32.7509 10 27.7812C10 22.8116 11.7211 18.6057 15.1634 15.1634C18.6057 11.7211 22.8116 10 27.7812 10C32.7509 10 36.9568 11.7211 40.3991 15.1634C43.8413 18.6057 45.5625 22.8116 45.5625 27.7812C45.5625 29.7873 45.2433 31.6794 44.605 33.4576C43.9667 35.2357 43.1005 36.8086 42.0062 38.1764C42.0062 38.1764 64.3504 47.3805 59.2404 55.4105C58.1048 57.195 57.195 58.1048 55.4105 59.2404ZM27.7812 40.0913C31.2007 40.0913 34.1073 38.8945 36.5009 36.5009C38.8945 34.1073 40.0913 31.2007 40.0913 27.7812C40.0913 24.3618 38.8945 21.4552 36.5009 19.0616C34.1073 16.668 31.2007 15.4712 27.7812 15.4712C24.3618 15.4712 21.4552 16.668 19.0616 19.0616C16.668 21.4552 15.4712 24.3618 15.4712 27.7812C15.4712 31.2007 16.668 34.1073 19.0616 36.5009C21.4552 38.8945 24.3618 40.0913 27.7812 40.0913Z" fill="#256D45" fill-opacity="0.94"/>
</svg>
