<svg width="56" height="56" viewBox="0 0 56 56" fill="none" xmlns="http://www.w3.org/2000/svg">
<path fill-rule="evenodd" clip-rule="evenodd" d="M46.5658 47.7332C49.3114 45.1534 51.4986 42.0379 52.9923 38.5793C54.486 35.1206 55.2544 31.3924 55.25 27.625C55.25 12.3675 42.8825 0 27.625 0C12.3675 0 1.84428e-05 12.3675 1.84428e-05 27.625C-0.00434065 31.3924 0.764074 35.1206 2.25776 38.5793C3.75145 42.0379 5.93866 45.1534 8.68419 47.7332C13.8038 52.5694 20.5823 55.2595 27.625 55.25C34.6677 55.2595 41.4462 52.5694 46.5658 47.7332ZM11.0359 44.0923C13.0251 41.6037 15.5494 39.5951 18.4213 38.2158C21.2933 36.8364 24.439 36.1218 27.625 36.125C30.811 36.1218 33.9568 36.8364 36.8287 38.2158C39.7007 39.5951 42.225 41.6037 44.2142 44.0923C42.0439 46.2845 39.46 48.0239 36.6123 49.2097C33.7646 50.3955 30.7097 51.004 27.625 51C24.5403 51.004 21.4855 50.3955 18.6378 49.2097C15.79 48.0239 13.2061 46.2845 11.0359 44.0923ZM38.25 19.125C38.25 21.9429 37.1306 24.6454 35.138 26.638C33.1455 28.6306 30.4429 29.75 27.625 29.75C24.8071 29.75 22.1046 28.6306 20.112 26.638C18.1194 24.6454 17 21.9429 17 19.125C17 16.3071 18.1194 13.6046 20.112 11.612C22.1046 9.61942 24.8071 8.5 27.625 8.5C30.4429 8.5 33.1455 9.61942 35.138 11.612C37.1306 13.6046 38.25 16.3071 38.25 19.125Z" fill="#256D45"/>
</svg>
