<svg width="121" height="121" viewBox="0 0 121 121" fill="none" xmlns="http://www.w3.org/2000/svg">
<g filter="url(#filter0_d_507_2044)">
<circle cx="60.5" cy="56.5" r="40.5" fill="#FFFEF2"/>
</g>
<path d="M42.0675 53.5009C40.6873 53.4636 39.5382 54.5522 39.5009 55.9325C39.4636 57.3127 40.5522 58.4618 41.9325 58.4991L42 56L42.0675 53.5009ZM80.7194 58.8149C81.7217 57.8653 81.7645 56.283 80.8149 55.2806L65.3406 38.9467C64.3911 37.9444 62.8087 37.9016 61.8064 38.8512C60.8041 39.8008 60.7613 41.3831 61.7109 42.3854L75.4658 56.9045L60.9467 70.6594C59.9444 71.6089 59.9016 73.1913 60.8512 74.1936C61.8008 75.1959 63.3831 75.2387 64.3854 74.2891L80.7194 58.8149ZM42 56L41.9325 58.4991L78.9325 59.4991L79 57L79.0675 54.5009L42.0675 53.5009L42 56Z" fill="#256D45"/>
<defs>
<filter id="filter0_d_507_2044" x="0" y="0" width="121" height="121" filterUnits="userSpaceOnUse" color-interpolation-filters="sRGB">
<feFlood flood-opacity="0" result="BackgroundImageFix"/>
<feColorMatrix in="SourceAlpha" type="matrix" values="0 0 0 0 0 0 0 0 0 0 0 0 0 0 0 0 0 0 127 0" result="hardAlpha"/>
<feOffset dy="4"/>
<feGaussianBlur stdDeviation="10"/>
<feComposite in2="hardAlpha" operator="out"/>
<feColorMatrix type="matrix" values="0 0 0 0 0 0 0 0 0 0 0 0 0 0 0 0 0 0 0.25 0"/>
<feBlend mode="normal" in2="BackgroundImageFix" result="effect1_dropShadow_507_2044"/>
<feBlend mode="normal" in="SourceGraphic" in2="effect1_dropShadow_507_2044" result="shape"/>
</filter>
</defs>
</svg>
